<mxfile host="www.draw.io" modified="2019-12-10T03:13:42.326Z" agent="Mozilla/5.0 (Windows NT 10.0; Win64; x64) AppleWebKit/537.36 (KHTML, like Gecko) Chrome/78.0.3904.108 Safari/537.36" etag="0EAKebkxlk32y_DAKyJ4" version="12.3.9" type="github" pages="4">
  <diagram id="Y5TGcIM_6fGzkvYZEW9p" name="普通单机部署">
    <mxGraphModel dx="868" dy="484" grid="1" gridSize="10" guides="1" tooltips="1" connect="1" arrows="1" fold="1" page="1" pageScale="1" pageWidth="827" pageHeight="1169" math="0" shadow="0">
      <root>
        <mxCell id="kRb9eVOmzFGWYdyYIqCs-0"/>
        <mxCell id="kRb9eVOmzFGWYdyYIqCs-1" parent="kRb9eVOmzFGWYdyYIqCs-0"/>
        <mxCell id="kNK-DyvE3368epbYAq7n-0" value="" style="rounded=0;whiteSpace=wrap;html=1;fillColor=#fff2cc;fontSize=13;strokeColor=#d6b656;" parent="kRb9eVOmzFGWYdyYIqCs-1" vertex="1">
          <mxGeometry x="18" y="240" width="360" height="240" as="geometry"/>
        </mxCell>
        <mxCell id="1K0qFf9UyCCS08f5BJYq-0" value="前端页面(apache)" style="rounded=1;whiteSpace=wrap;html=1;" parent="kRb9eVOmzFGWYdyYIqCs-1" vertex="1">
          <mxGeometry x="305" y="130" width="120" height="70" as="geometry"/>
        </mxCell>
        <mxCell id="1K0qFf9UyCCS08f5BJYq-1" value="单机部署" style="text;html=1;strokeColor=none;fillColor=none;align=center;verticalAlign=middle;whiteSpace=wrap;rounded=0;fontSize=18;" parent="kRb9eVOmzFGWYdyYIqCs-1" vertex="1">
          <mxGeometry x="277" y="40" width="170" height="20" as="geometry"/>
        </mxCell>
        <mxCell id="1K0qFf9UyCCS08f5BJYq-2" value="后端服务" style="rounded=1;whiteSpace=wrap;html=1;" parent="kRb9eVOmzFGWYdyYIqCs-1" vertex="1">
          <mxGeometry x="150" y="250" width="120" height="80" as="geometry"/>
        </mxCell>
        <mxCell id="1K0qFf9UyCCS08f5BJYq-4" value="" style="endArrow=classic;html=1;fontSize=18;" parent="kRb9eVOmzFGWYdyYIqCs-1" edge="1">
          <mxGeometry width="50" height="50" relative="1" as="geometry">
            <mxPoint x="360" y="80" as="sourcePoint"/>
            <mxPoint x="360" y="115" as="targetPoint"/>
          </mxGeometry>
        </mxCell>
        <mxCell id="1K0qFf9UyCCS08f5BJYq-5" value="80" style="text;html=1;strokeColor=none;fillColor=none;align=center;verticalAlign=middle;whiteSpace=wrap;rounded=0;fontSize=13;" parent="kRb9eVOmzFGWYdyYIqCs-1" vertex="1">
          <mxGeometry x="270" y="128" width="40" height="20" as="geometry"/>
        </mxCell>
        <mxCell id="1K0qFf9UyCCS08f5BJYq-6" value="" style="endArrow=classic;html=1;fontSize=18;entryX=0.5;entryY=0;entryDx=0;entryDy=0;exitX=0.25;exitY=1;exitDx=0;exitDy=0;" parent="kRb9eVOmzFGWYdyYIqCs-1" source="1K0qFf9UyCCS08f5BJYq-0" target="1K0qFf9UyCCS08f5BJYq-2" edge="1">
          <mxGeometry width="50" height="50" relative="1" as="geometry">
            <mxPoint x="370" y="90" as="sourcePoint"/>
            <mxPoint x="370" y="125" as="targetPoint"/>
          </mxGeometry>
        </mxCell>
        <mxCell id="1K0qFf9UyCCS08f5BJYq-7" value="" style="endArrow=classic;html=1;fontSize=18;entryX=0.5;entryY=0;entryDx=0;entryDy=0;exitX=0.75;exitY=1;exitDx=0;exitDy=0;" parent="kRb9eVOmzFGWYdyYIqCs-1" source="1K0qFf9UyCCS08f5BJYq-0" target="DXpQ59VUUpjHZqkPduVe-10" edge="1">
          <mxGeometry width="50" height="50" relative="1" as="geometry">
            <mxPoint x="345" y="180" as="sourcePoint"/>
            <mxPoint x="582.5" y="220" as="targetPoint"/>
          </mxGeometry>
        </mxCell>
        <mxCell id="1K0qFf9UyCCS08f5BJYq-9" value="8086" style="text;html=1;strokeColor=none;fillColor=none;align=center;verticalAlign=middle;whiteSpace=wrap;rounded=0;fontSize=13;" parent="kRb9eVOmzFGWYdyYIqCs-1" vertex="1">
          <mxGeometry x="110" y="250" width="40" height="20" as="geometry"/>
        </mxCell>
        <mxCell id="DXpQ59VUUpjHZqkPduVe-1" value="MySQL" style="rounded=1;whiteSpace=wrap;html=1;" parent="kRb9eVOmzFGWYdyYIqCs-1" vertex="1">
          <mxGeometry x="54" y="384" width="80" height="70" as="geometry"/>
        </mxCell>
        <mxCell id="DXpQ59VUUpjHZqkPduVe-2" value="3306" style="text;html=1;align=center;verticalAlign=middle;resizable=0;points=[];;autosize=1;fontSize=13;" parent="kRb9eVOmzFGWYdyYIqCs-1" vertex="1">
          <mxGeometry x="14" y="389" width="40" height="20" as="geometry"/>
        </mxCell>
        <mxCell id="DXpQ59VUUpjHZqkPduVe-3" value="" style="endArrow=classic;html=1;fontSize=18;exitX=0.5;exitY=1;exitDx=0;exitDy=0;entryX=0.5;entryY=0;entryDx=0;entryDy=0;" parent="kRb9eVOmzFGWYdyYIqCs-1" source="1K0qFf9UyCCS08f5BJYq-2" target="DXpQ59VUUpjHZqkPduVe-1" edge="1">
          <mxGeometry width="50" height="50" relative="1" as="geometry">
            <mxPoint x="370" y="90" as="sourcePoint"/>
            <mxPoint x="370" y="125" as="targetPoint"/>
          </mxGeometry>
        </mxCell>
        <mxCell id="DXpQ59VUUpjHZqkPduVe-5" value="Redis" style="rounded=1;whiteSpace=wrap;html=1;" parent="kRb9eVOmzFGWYdyYIqCs-1" vertex="1">
          <mxGeometry x="170" y="384" width="80" height="70" as="geometry"/>
        </mxCell>
        <mxCell id="DXpQ59VUUpjHZqkPduVe-6" value="" style="endArrow=classic;html=1;fontSize=18;exitX=0.5;exitY=1;exitDx=0;exitDy=0;entryX=0.5;entryY=0;entryDx=0;entryDy=0;" parent="kRb9eVOmzFGWYdyYIqCs-1" source="1K0qFf9UyCCS08f5BJYq-2" target="DXpQ59VUUpjHZqkPduVe-5" edge="1">
          <mxGeometry width="50" height="50" relative="1" as="geometry">
            <mxPoint x="220" y="290" as="sourcePoint"/>
            <mxPoint x="100" y="360" as="targetPoint"/>
          </mxGeometry>
        </mxCell>
        <mxCell id="DXpQ59VUUpjHZqkPduVe-7" value="数据同步服务" style="rounded=1;whiteSpace=wrap;html=1;" parent="kRb9eVOmzFGWYdyYIqCs-1" vertex="1">
          <mxGeometry x="286" y="384" width="80" height="70" as="geometry"/>
        </mxCell>
        <mxCell id="DXpQ59VUUpjHZqkPduVe-8" value="" style="endArrow=classic;html=1;fontSize=18;exitX=0.5;exitY=1;exitDx=0;exitDy=0;entryX=0.5;entryY=0;entryDx=0;entryDy=0;" parent="kRb9eVOmzFGWYdyYIqCs-1" source="1K0qFf9UyCCS08f5BJYq-2" target="DXpQ59VUUpjHZqkPduVe-7" edge="1">
          <mxGeometry width="50" height="50" relative="1" as="geometry">
            <mxPoint x="220" y="290" as="sourcePoint"/>
            <mxPoint x="220" y="360" as="targetPoint"/>
          </mxGeometry>
        </mxCell>
        <mxCell id="DXpQ59VUUpjHZqkPduVe-10" value="" style="rounded=0;whiteSpace=wrap;html=1;fillColor=#dae8fc;fontSize=13;strokeColor=#6c8ebf;" parent="kRb9eVOmzFGWYdyYIqCs-1" vertex="1">
          <mxGeometry x="400" y="240" width="360" height="240" as="geometry"/>
        </mxCell>
        <mxCell id="DXpQ59VUUpjHZqkPduVe-11" value="会诊（好视通）服务" style="rounded=1;whiteSpace=wrap;html=1;fillColor=#ffffff;fontSize=13;" parent="kRb9eVOmzFGWYdyYIqCs-1" vertex="1">
          <mxGeometry x="430" y="250" width="150" height="50" as="geometry"/>
        </mxCell>
        <mxCell id="DXpQ59VUUpjHZqkPduVe-12" value="影像服务" style="rounded=1;whiteSpace=wrap;html=1;fillColor=#ffffff;fontSize=13;" parent="kRb9eVOmzFGWYdyYIqCs-1" vertex="1">
          <mxGeometry x="600" y="250" width="150" height="50" as="geometry"/>
        </mxCell>
        <mxCell id="DXpQ59VUUpjHZqkPduVe-13" value="视频（海康）服务" style="rounded=1;whiteSpace=wrap;html=1;fillColor=#ffffff;fontSize=13;" parent="kRb9eVOmzFGWYdyYIqCs-1" vertex="1">
          <mxGeometry x="430" y="325" width="150" height="50" as="geometry"/>
        </mxCell>
        <mxCell id="DXpQ59VUUpjHZqkPduVe-14" value="语音（飞讯）服务" style="rounded=1;whiteSpace=wrap;html=1;fillColor=#ffffff;fontSize=13;" parent="kRb9eVOmzFGWYdyYIqCs-1" vertex="1">
          <mxGeometry x="600" y="325" width="150" height="50" as="geometry"/>
        </mxCell>
        <mxCell id="DXpQ59VUUpjHZqkPduVe-15" value="文件存储服务" style="rounded=1;whiteSpace=wrap;html=1;fillColor=#ffffff;fontSize=13;" parent="kRb9eVOmzFGWYdyYIqCs-1" vertex="1">
          <mxGeometry x="430" y="399" width="150" height="50" as="geometry"/>
        </mxCell>
        <mxCell id="DXpQ59VUUpjHZqkPduVe-16" value="第三方服务" style="text;html=1;strokeColor=none;fillColor=none;align=center;verticalAlign=middle;whiteSpace=wrap;rounded=0;fontSize=13;" parent="kRb9eVOmzFGWYdyYIqCs-1" vertex="1">
          <mxGeometry x="543.5" y="460" width="73" height="20" as="geometry"/>
        </mxCell>
        <mxCell id="DXpQ59VUUpjHZqkPduVe-17" value="6379" style="text;html=1;align=center;verticalAlign=middle;resizable=0;points=[];;autosize=1;fontSize=13;" parent="kRb9eVOmzFGWYdyYIqCs-1" vertex="1">
          <mxGeometry x="134" y="389" width="40" height="20" as="geometry"/>
        </mxCell>
        <mxCell id="kNK-DyvE3368epbYAq7n-1" value="后端服务" style="text;html=1;strokeColor=none;fillColor=none;align=center;verticalAlign=middle;whiteSpace=wrap;rounded=0;fontSize=13;" parent="kRb9eVOmzFGWYdyYIqCs-1" vertex="1">
          <mxGeometry x="170" y="460" width="73" height="20" as="geometry"/>
        </mxCell>
        <mxCell id="kNK-DyvE3368epbYAq7n-2" value="" style="endArrow=classic;html=1;fontSize=18;entryX=0;entryY=0.388;entryDx=0;entryDy=0;entryPerimeter=0;" parent="kRb9eVOmzFGWYdyYIqCs-1" target="DXpQ59VUUpjHZqkPduVe-10" edge="1">
          <mxGeometry width="50" height="50" relative="1" as="geometry">
            <mxPoint x="378" y="333" as="sourcePoint"/>
            <mxPoint x="563" y="375" as="targetPoint"/>
          </mxGeometry>
        </mxCell>
      </root>
    </mxGraphModel>
  </diagram>
  <diagram id="z7H6pwFhPu-ThjrWTbt8" name="单机HTTPS部署">
    <mxGraphModel dx="868" dy="484" grid="1" gridSize="10" guides="1" tooltips="1" connect="1" arrows="1" fold="1" page="1" pageScale="1" pageWidth="827" pageHeight="1169" math="0" shadow="0">
      <root>
        <mxCell id="5mKTML8ySXFwlkELhTNK-0"/>
        <mxCell id="5mKTML8ySXFwlkELhTNK-1" parent="5mKTML8ySXFwlkELhTNK-0"/>
        <mxCell id="__T1aThAIDx9H7n9YtOv-0" value="" style="rounded=0;whiteSpace=wrap;html=1;fillColor=#fff2cc;fontSize=13;strokeColor=#d6b656;" parent="5mKTML8ySXFwlkELhTNK-1" vertex="1">
          <mxGeometry x="24" y="344" width="360" height="240" as="geometry"/>
        </mxCell>
        <mxCell id="__T1aThAIDx9H7n9YtOv-1" value="前端页面(apache)" style="rounded=1;whiteSpace=wrap;html=1;" parent="5mKTML8ySXFwlkELhTNK-1" vertex="1">
          <mxGeometry x="305" y="130" width="120" height="70" as="geometry"/>
        </mxCell>
        <mxCell id="__T1aThAIDx9H7n9YtOv-2" value="单机部署" style="text;html=1;strokeColor=none;fillColor=none;align=center;verticalAlign=middle;whiteSpace=wrap;rounded=0;fontSize=18;" parent="5mKTML8ySXFwlkELhTNK-1" vertex="1">
          <mxGeometry x="277" y="40" width="170" height="20" as="geometry"/>
        </mxCell>
        <mxCell id="__T1aThAIDx9H7n9YtOv-3" value="后端服务" style="rounded=1;whiteSpace=wrap;html=1;" parent="5mKTML8ySXFwlkELhTNK-1" vertex="1">
          <mxGeometry x="156" y="354" width="120" height="80" as="geometry"/>
        </mxCell>
        <mxCell id="__T1aThAIDx9H7n9YtOv-4" value="" style="endArrow=classic;html=1;fontSize=18;" parent="5mKTML8ySXFwlkELhTNK-1" edge="1">
          <mxGeometry width="50" height="50" relative="1" as="geometry">
            <mxPoint x="360" y="80" as="sourcePoint"/>
            <mxPoint x="360" y="115" as="targetPoint"/>
          </mxGeometry>
        </mxCell>
        <mxCell id="__T1aThAIDx9H7n9YtOv-5" value="跳转80-&amp;gt;443" style="text;html=1;strokeColor=none;fillColor=none;align=center;verticalAlign=middle;whiteSpace=wrap;rounded=0;fontSize=13;" parent="5mKTML8ySXFwlkELhTNK-1" vertex="1">
          <mxGeometry x="200" y="128" width="110" height="20" as="geometry"/>
        </mxCell>
        <mxCell id="__T1aThAIDx9H7n9YtOv-8" value="8086" style="text;html=1;strokeColor=none;fillColor=none;align=center;verticalAlign=middle;whiteSpace=wrap;rounded=0;fontSize=13;" parent="5mKTML8ySXFwlkELhTNK-1" vertex="1">
          <mxGeometry x="116" y="354" width="40" height="20" as="geometry"/>
        </mxCell>
        <mxCell id="__T1aThAIDx9H7n9YtOv-9" value="MySQL" style="rounded=1;whiteSpace=wrap;html=1;" parent="5mKTML8ySXFwlkELhTNK-1" vertex="1">
          <mxGeometry x="60" y="488" width="80" height="70" as="geometry"/>
        </mxCell>
        <mxCell id="__T1aThAIDx9H7n9YtOv-10" value="3306" style="text;html=1;align=center;verticalAlign=middle;resizable=0;points=[];;autosize=1;fontSize=13;" parent="5mKTML8ySXFwlkELhTNK-1" vertex="1">
          <mxGeometry x="20" y="493" width="40" height="20" as="geometry"/>
        </mxCell>
        <mxCell id="__T1aThAIDx9H7n9YtOv-11" value="" style="endArrow=classic;html=1;fontSize=18;exitX=0.5;exitY=1;exitDx=0;exitDy=0;entryX=0.5;entryY=0;entryDx=0;entryDy=0;" parent="5mKTML8ySXFwlkELhTNK-1" source="__T1aThAIDx9H7n9YtOv-3" target="__T1aThAIDx9H7n9YtOv-9" edge="1">
          <mxGeometry width="50" height="50" relative="1" as="geometry">
            <mxPoint x="376" y="194" as="sourcePoint"/>
            <mxPoint x="376" y="229" as="targetPoint"/>
          </mxGeometry>
        </mxCell>
        <mxCell id="__T1aThAIDx9H7n9YtOv-12" value="Redis" style="rounded=1;whiteSpace=wrap;html=1;" parent="5mKTML8ySXFwlkELhTNK-1" vertex="1">
          <mxGeometry x="176" y="488" width="80" height="70" as="geometry"/>
        </mxCell>
        <mxCell id="__T1aThAIDx9H7n9YtOv-13" value="" style="endArrow=classic;html=1;fontSize=18;exitX=0.5;exitY=1;exitDx=0;exitDy=0;entryX=0.5;entryY=0;entryDx=0;entryDy=0;" parent="5mKTML8ySXFwlkELhTNK-1" source="__T1aThAIDx9H7n9YtOv-3" target="__T1aThAIDx9H7n9YtOv-12" edge="1">
          <mxGeometry width="50" height="50" relative="1" as="geometry">
            <mxPoint x="226" y="394" as="sourcePoint"/>
            <mxPoint x="106" y="464" as="targetPoint"/>
          </mxGeometry>
        </mxCell>
        <mxCell id="__T1aThAIDx9H7n9YtOv-14" value="数据同步服务" style="rounded=1;whiteSpace=wrap;html=1;" parent="5mKTML8ySXFwlkELhTNK-1" vertex="1">
          <mxGeometry x="292" y="488" width="80" height="70" as="geometry"/>
        </mxCell>
        <mxCell id="__T1aThAIDx9H7n9YtOv-15" value="" style="endArrow=classic;html=1;fontSize=18;exitX=0.5;exitY=1;exitDx=0;exitDy=0;entryX=0.5;entryY=0;entryDx=0;entryDy=0;" parent="5mKTML8ySXFwlkELhTNK-1" source="__T1aThAIDx9H7n9YtOv-3" target="__T1aThAIDx9H7n9YtOv-14" edge="1">
          <mxGeometry width="50" height="50" relative="1" as="geometry">
            <mxPoint x="226" y="394" as="sourcePoint"/>
            <mxPoint x="226" y="464" as="targetPoint"/>
          </mxGeometry>
        </mxCell>
        <mxCell id="__T1aThAIDx9H7n9YtOv-16" value="" style="rounded=0;whiteSpace=wrap;html=1;fillColor=#dae8fc;fontSize=13;strokeColor=#6c8ebf;" parent="5mKTML8ySXFwlkELhTNK-1" vertex="1">
          <mxGeometry x="406" y="344" width="360" height="240" as="geometry"/>
        </mxCell>
        <mxCell id="__T1aThAIDx9H7n9YtOv-17" value="会诊（好视通）服务" style="rounded=1;whiteSpace=wrap;html=1;fillColor=#ffffff;fontSize=13;" parent="5mKTML8ySXFwlkELhTNK-1" vertex="1">
          <mxGeometry x="436" y="354" width="150" height="50" as="geometry"/>
        </mxCell>
        <mxCell id="__T1aThAIDx9H7n9YtOv-18" value="影像服务" style="rounded=1;whiteSpace=wrap;html=1;fillColor=#ffffff;fontSize=13;" parent="5mKTML8ySXFwlkELhTNK-1" vertex="1">
          <mxGeometry x="606" y="354" width="150" height="50" as="geometry"/>
        </mxCell>
        <mxCell id="__T1aThAIDx9H7n9YtOv-19" value="视频（海康）服务" style="rounded=1;whiteSpace=wrap;html=1;fillColor=#ffffff;fontSize=13;" parent="5mKTML8ySXFwlkELhTNK-1" vertex="1">
          <mxGeometry x="436" y="429" width="150" height="50" as="geometry"/>
        </mxCell>
        <mxCell id="__T1aThAIDx9H7n9YtOv-20" value="语音（飞讯）服务" style="rounded=1;whiteSpace=wrap;html=1;fillColor=#ffffff;fontSize=13;" parent="5mKTML8ySXFwlkELhTNK-1" vertex="1">
          <mxGeometry x="606" y="429" width="150" height="50" as="geometry"/>
        </mxCell>
        <mxCell id="__T1aThAIDx9H7n9YtOv-21" value="文件存储服务" style="rounded=1;whiteSpace=wrap;html=1;fillColor=#ffffff;fontSize=13;" parent="5mKTML8ySXFwlkELhTNK-1" vertex="1">
          <mxGeometry x="436" y="503" width="150" height="50" as="geometry"/>
        </mxCell>
        <mxCell id="__T1aThAIDx9H7n9YtOv-22" value="第三方服务" style="text;html=1;strokeColor=none;fillColor=none;align=center;verticalAlign=middle;whiteSpace=wrap;rounded=0;fontSize=13;" parent="5mKTML8ySXFwlkELhTNK-1" vertex="1">
          <mxGeometry x="549.5" y="564" width="73" height="20" as="geometry"/>
        </mxCell>
        <mxCell id="__T1aThAIDx9H7n9YtOv-23" value="6379" style="text;html=1;align=center;verticalAlign=middle;resizable=0;points=[];;autosize=1;fontSize=13;" parent="5mKTML8ySXFwlkELhTNK-1" vertex="1">
          <mxGeometry x="140" y="493" width="40" height="20" as="geometry"/>
        </mxCell>
        <mxCell id="__T1aThAIDx9H7n9YtOv-24" value="后端服务" style="text;html=1;strokeColor=none;fillColor=none;align=center;verticalAlign=middle;whiteSpace=wrap;rounded=0;fontSize=13;" parent="5mKTML8ySXFwlkELhTNK-1" vertex="1">
          <mxGeometry x="176" y="564" width="73" height="20" as="geometry"/>
        </mxCell>
        <mxCell id="__T1aThAIDx9H7n9YtOv-25" value="" style="endArrow=classic;html=1;fontSize=18;entryX=0;entryY=0.388;entryDx=0;entryDy=0;entryPerimeter=0;" parent="5mKTML8ySXFwlkELhTNK-1" target="__T1aThAIDx9H7n9YtOv-16" edge="1">
          <mxGeometry width="50" height="50" relative="1" as="geometry">
            <mxPoint x="384" y="437" as="sourcePoint"/>
            <mxPoint x="569" y="479" as="targetPoint"/>
          </mxGeometry>
        </mxCell>
        <mxCell id="__T1aThAIDx9H7n9YtOv-26" value="Nginx" style="rounded=1;whiteSpace=wrap;html=1;" parent="5mKTML8ySXFwlkELhTNK-1" vertex="1">
          <mxGeometry x="305" y="230" width="120" height="70" as="geometry"/>
        </mxCell>
        <mxCell id="__T1aThAIDx9H7n9YtOv-27" value="" style="endArrow=classic;html=1;fontSize=18;exitX=0.5;exitY=1;exitDx=0;exitDy=0;entryX=0.5;entryY=0;entryDx=0;entryDy=0;" parent="5mKTML8ySXFwlkELhTNK-1" source="__T1aThAIDx9H7n9YtOv-1" target="__T1aThAIDx9H7n9YtOv-26" edge="1">
          <mxGeometry width="50" height="50" relative="1" as="geometry">
            <mxPoint x="370" y="90" as="sourcePoint"/>
            <mxPoint x="370" y="125" as="targetPoint"/>
          </mxGeometry>
        </mxCell>
        <mxCell id="__T1aThAIDx9H7n9YtOv-28" value="https端口" style="text;html=1;strokeColor=none;fillColor=none;align=center;verticalAlign=middle;whiteSpace=wrap;rounded=0;fontSize=13;" parent="5mKTML8ySXFwlkELhTNK-1" vertex="1">
          <mxGeometry x="240" y="230" width="70" height="20" as="geometry"/>
        </mxCell>
        <mxCell id="__T1aThAIDx9H7n9YtOv-29" value="http端口" style="text;html=1;strokeColor=none;fillColor=none;align=center;verticalAlign=middle;whiteSpace=wrap;rounded=0;fontSize=13;" parent="5mKTML8ySXFwlkELhTNK-1" vertex="1">
          <mxGeometry x="240" y="280" width="70" height="20" as="geometry"/>
        </mxCell>
        <mxCell id="__T1aThAIDx9H7n9YtOv-30" value="" style="endArrow=classic;html=1;fontSize=18;exitX=0.5;exitY=1;exitDx=0;exitDy=0;entryX=0.5;entryY=0;entryDx=0;entryDy=0;" parent="5mKTML8ySXFwlkELhTNK-1" source="__T1aThAIDx9H7n9YtOv-26" target="__T1aThAIDx9H7n9YtOv-0" edge="1">
          <mxGeometry width="50" height="50" relative="1" as="geometry">
            <mxPoint x="375" y="210" as="sourcePoint"/>
            <mxPoint x="375" y="240" as="targetPoint"/>
          </mxGeometry>
        </mxCell>
        <mxCell id="__T1aThAIDx9H7n9YtOv-31" value="" style="endArrow=classic;html=1;fontSize=18;exitX=0.5;exitY=1;exitDx=0;exitDy=0;entryX=0.5;entryY=0;entryDx=0;entryDy=0;" parent="5mKTML8ySXFwlkELhTNK-1" source="__T1aThAIDx9H7n9YtOv-26" target="__T1aThAIDx9H7n9YtOv-16" edge="1">
          <mxGeometry width="50" height="50" relative="1" as="geometry">
            <mxPoint x="375" y="310" as="sourcePoint"/>
            <mxPoint x="214" y="354" as="targetPoint"/>
          </mxGeometry>
        </mxCell>
      </root>
    </mxGraphModel>
  </diagram>
  <diagram id="T0V8WLac-8pC1zEJyG0f" name="集群部署">
    <mxGraphModel dx="868" dy="484" grid="1" gridSize="10" guides="1" tooltips="1" connect="1" arrows="1" fold="1" page="1" pageScale="1" pageWidth="827" pageHeight="1169" math="0" shadow="0">
      <root>
        <mxCell id="0"/>
        <mxCell id="1" parent="0"/>
        <mxCell id="qCbVYPlnWsIV7pBduCYX-6" value="" style="rounded=0;whiteSpace=wrap;html=1;fillColor=#dae8fc;strokeColor=#6c8ebf;" vertex="1" parent="1">
          <mxGeometry x="20" y="220" width="350" height="160" as="geometry"/>
        </mxCell>
        <mxCell id="qCbVYPlnWsIV7pBduCYX-1" value="Nginx" style="rounded=1;whiteSpace=wrap;html=1;" vertex="1" parent="1">
          <mxGeometry x="346" y="120" width="120" height="40" as="geometry"/>
        </mxCell>
        <mxCell id="qCbVYPlnWsIV7pBduCYX-2" value="不停机部署结构" style="text;html=1;strokeColor=none;fillColor=none;align=center;verticalAlign=middle;whiteSpace=wrap;rounded=0;" vertex="1" parent="1">
          <mxGeometry x="323" y="10" width="180" height="20" as="geometry"/>
        </mxCell>
        <mxCell id="qCbVYPlnWsIV7pBduCYX-3" value="Nginx1" style="rounded=1;whiteSpace=wrap;html=1;" vertex="1" parent="1">
          <mxGeometry x="70" y="240" width="120" height="40" as="geometry"/>
        </mxCell>
        <mxCell id="qCbVYPlnWsIV7pBduCYX-4" value="Nginx2" style="rounded=1;whiteSpace=wrap;html=1;" vertex="1" parent="1">
          <mxGeometry x="240" y="240" width="120" height="40" as="geometry"/>
        </mxCell>
        <mxCell id="qCbVYPlnWsIV7pBduCYX-5" value="前端页面(apache1)" style="rounded=1;whiteSpace=wrap;html=1;" vertex="1" parent="1">
          <mxGeometry x="70" y="320" width="120" height="40" as="geometry"/>
        </mxCell>
        <mxCell id="qCbVYPlnWsIV7pBduCYX-7" value="" style="endArrow=classic;html=1;" edge="1" parent="1">
          <mxGeometry width="50" height="50" relative="1" as="geometry">
            <mxPoint x="409" y="70" as="sourcePoint"/>
            <mxPoint x="409" y="110" as="targetPoint"/>
          </mxGeometry>
        </mxCell>
        <mxCell id="qCbVYPlnWsIV7pBduCYX-8" value="前端页面(apache2)" style="rounded=1;whiteSpace=wrap;html=1;" vertex="1" parent="1">
          <mxGeometry x="240" y="320" width="120" height="40" as="geometry"/>
        </mxCell>
        <mxCell id="TEHKBG98ePAliRTCTFx6-1" value="80" style="text;html=1;strokeColor=none;fillColor=none;align=center;verticalAlign=middle;whiteSpace=wrap;rounded=0;fontSize=13;" vertex="1" parent="1">
          <mxGeometry x="313" y="120" width="40" height="20" as="geometry"/>
        </mxCell>
        <mxCell id="TEHKBG98ePAliRTCTFx6-2" value="81" style="text;html=1;strokeColor=none;fillColor=none;align=center;verticalAlign=middle;whiteSpace=wrap;rounded=0;fontSize=13;" vertex="1" parent="1">
          <mxGeometry x="40" y="240" width="40" height="20" as="geometry"/>
        </mxCell>
        <mxCell id="TEHKBG98ePAliRTCTFx6-3" value="82" style="text;html=1;strokeColor=none;fillColor=none;align=center;verticalAlign=middle;whiteSpace=wrap;rounded=0;fontSize=13;" vertex="1" parent="1">
          <mxGeometry x="210" y="240" width="40" height="20" as="geometry"/>
        </mxCell>
        <mxCell id="TEHKBG98ePAliRTCTFx6-4" value="83" style="text;html=1;strokeColor=none;fillColor=none;align=center;verticalAlign=middle;whiteSpace=wrap;rounded=0;fontSize=13;" vertex="1" parent="1">
          <mxGeometry x="40" y="320" width="40" height="20" as="geometry"/>
        </mxCell>
        <mxCell id="TEHKBG98ePAliRTCTFx6-5" value="84" style="text;html=1;strokeColor=none;fillColor=none;align=center;verticalAlign=middle;whiteSpace=wrap;rounded=0;fontSize=13;" vertex="1" parent="1">
          <mxGeometry x="210" y="320" width="40" height="20" as="geometry"/>
        </mxCell>
        <mxCell id="TEHKBG98ePAliRTCTFx6-8" value="前端集群" style="text;html=1;strokeColor=none;fillColor=none;align=center;verticalAlign=middle;whiteSpace=wrap;rounded=0;horizontal=1;direction=south;" vertex="1" parent="1">
          <mxGeometry x="20" y="270" width="20" height="60" as="geometry"/>
        </mxCell>
        <mxCell id="TEHKBG98ePAliRTCTFx6-9" value="8086,第三方端口" style="text;html=1;strokeColor=none;fillColor=none;align=center;verticalAlign=middle;whiteSpace=wrap;rounded=0;fontSize=13;" vertex="1" parent="1">
          <mxGeometry x="466" y="120" width="104" height="20" as="geometry"/>
        </mxCell>
        <mxCell id="PUQhexSGdYDI1BXRTO69-12" value="" style="rounded=0;whiteSpace=wrap;html=1;fillColor=#dae8fc;strokeColor=#6c8ebf;" vertex="1" parent="1">
          <mxGeometry x="400" y="220" width="360" height="160" as="geometry"/>
        </mxCell>
        <mxCell id="PUQhexSGdYDI1BXRTO69-13" value="后端服务1" style="rounded=1;whiteSpace=wrap;html=1;" vertex="1" parent="1">
          <mxGeometry x="460" y="240" width="120" height="130" as="geometry"/>
        </mxCell>
        <mxCell id="PUQhexSGdYDI1BXRTO69-14" value="后端服务2" style="rounded=1;whiteSpace=wrap;html=1;" vertex="1" parent="1">
          <mxGeometry x="620" y="240" width="120" height="130" as="geometry"/>
        </mxCell>
        <mxCell id="PUQhexSGdYDI1BXRTO69-17" value="8087" style="text;html=1;strokeColor=none;fillColor=none;align=center;verticalAlign=middle;whiteSpace=wrap;rounded=0;fontSize=13;" vertex="1" parent="1">
          <mxGeometry x="419" y="240" width="40" height="20" as="geometry"/>
        </mxCell>
        <mxCell id="PUQhexSGdYDI1BXRTO69-18" value="8088" style="text;html=1;strokeColor=none;fillColor=none;align=center;verticalAlign=middle;whiteSpace=wrap;rounded=0;fontSize=13;" vertex="1" parent="1">
          <mxGeometry x="580" y="240" width="40" height="20" as="geometry"/>
        </mxCell>
        <mxCell id="PUQhexSGdYDI1BXRTO69-21" value="后端集群" style="text;html=1;strokeColor=none;fillColor=none;align=center;verticalAlign=middle;whiteSpace=wrap;rounded=0;horizontal=1;direction=south;" vertex="1" parent="1">
          <mxGeometry x="400" y="280" width="20" height="60" as="geometry"/>
        </mxCell>
        <mxCell id="w-baj-1siEUhANPPdsxa-3" value="" style="rounded=0;whiteSpace=wrap;html=1;fillColor=#dae8fc;strokeColor=#6c8ebf;" vertex="1" parent="1">
          <mxGeometry x="190" y="460" width="360" height="160" as="geometry"/>
        </mxCell>
        <mxCell id="w-baj-1siEUhANPPdsxa-4" value="&lt;span style=&quot;font-size: 13px&quot;&gt;会诊（好视通）服务&lt;/span&gt;" style="rounded=1;whiteSpace=wrap;html=1;" vertex="1" parent="1">
          <mxGeometry x="229" y="465" width="131" height="45" as="geometry"/>
        </mxCell>
        <mxCell id="w-baj-1siEUhANPPdsxa-5" value="&lt;span style=&quot;font-size: 13px&quot;&gt;影像服务&lt;/span&gt;" style="rounded=1;whiteSpace=wrap;html=1;" vertex="1" parent="1">
          <mxGeometry x="380" y="465" width="130" height="45" as="geometry"/>
        </mxCell>
        <mxCell id="w-baj-1siEUhANPPdsxa-8" value="第三方服务" style="text;html=1;strokeColor=none;fillColor=none;align=center;verticalAlign=middle;whiteSpace=wrap;rounded=0;horizontal=1;direction=south;" vertex="1" parent="1">
          <mxGeometry x="190" y="520" width="20" height="60" as="geometry"/>
        </mxCell>
        <mxCell id="FIlexrM_tFTip6uMLcFl-1" value="" style="endArrow=classic;html=1;fontSize=13;entryX=0.5;entryY=0;entryDx=0;entryDy=0;exitX=0.5;exitY=1;exitDx=0;exitDy=0;" edge="1" parent="1" source="qCbVYPlnWsIV7pBduCYX-1" target="qCbVYPlnWsIV7pBduCYX-6">
          <mxGeometry width="50" height="50" relative="1" as="geometry">
            <mxPoint x="390" y="230" as="sourcePoint"/>
            <mxPoint x="440" y="180" as="targetPoint"/>
          </mxGeometry>
        </mxCell>
        <mxCell id="FIlexrM_tFTip6uMLcFl-2" value="" style="endArrow=classic;html=1;fontSize=13;entryX=0.5;entryY=0;entryDx=0;entryDy=0;" edge="1" parent="1" target="PUQhexSGdYDI1BXRTO69-12">
          <mxGeometry width="50" height="50" relative="1" as="geometry">
            <mxPoint x="410" y="160" as="sourcePoint"/>
            <mxPoint x="210" y="230" as="targetPoint"/>
          </mxGeometry>
        </mxCell>
        <mxCell id="S871MH0N-in6K0cmHWqu-1" value="视频（海康）服务" style="rounded=1;whiteSpace=wrap;html=1;fillColor=#ffffff;fontSize=13;" vertex="1" parent="1">
          <mxGeometry x="229" y="520" width="131" height="40" as="geometry"/>
        </mxCell>
        <mxCell id="KFPzvuTl9U_heEtDYzFp-1" value="语音（飞讯）服务" style="rounded=1;whiteSpace=wrap;html=1;fillColor=#ffffff;fontSize=13;" vertex="1" parent="1">
          <mxGeometry x="379" y="520" width="131" height="40" as="geometry"/>
        </mxCell>
        <mxCell id="KFPzvuTl9U_heEtDYzFp-3" value="" style="endArrow=classic;html=1;fontSize=13;entryX=0.5;entryY=0;entryDx=0;entryDy=0;exitX=0.5;exitY=1;exitDx=0;exitDy=0;" edge="1" parent="1" source="qCbVYPlnWsIV7pBduCYX-6" target="w-baj-1siEUhANPPdsxa-3">
          <mxGeometry width="50" height="50" relative="1" as="geometry">
            <mxPoint x="416" y="170" as="sourcePoint"/>
            <mxPoint x="205" y="230" as="targetPoint"/>
          </mxGeometry>
        </mxCell>
        <mxCell id="KFPzvuTl9U_heEtDYzFp-4" value="" style="endArrow=classic;html=1;fontSize=13;entryX=0.5;entryY=0;entryDx=0;entryDy=0;exitX=0.5;exitY=1;exitDx=0;exitDy=0;" edge="1" parent="1" source="PUQhexSGdYDI1BXRTO69-12" target="w-baj-1siEUhANPPdsxa-3">
          <mxGeometry width="50" height="50" relative="1" as="geometry">
            <mxPoint x="205" y="390" as="sourcePoint"/>
            <mxPoint x="380" y="470" as="targetPoint"/>
          </mxGeometry>
        </mxCell>
        <mxCell id="KFPzvuTl9U_heEtDYzFp-5" value="" style="endArrow=classic;html=1;fontSize=13;exitX=0.5;exitY=1;exitDx=0;exitDy=0;" edge="1" parent="1" source="qCbVYPlnWsIV7pBduCYX-3" target="qCbVYPlnWsIV7pBduCYX-5">
          <mxGeometry width="50" height="50" relative="1" as="geometry">
            <mxPoint x="416" y="170" as="sourcePoint"/>
            <mxPoint x="205" y="230" as="targetPoint"/>
          </mxGeometry>
        </mxCell>
        <mxCell id="KFPzvuTl9U_heEtDYzFp-6" value="" style="endArrow=classic;html=1;fontSize=13;exitX=0.5;exitY=1;exitDx=0;exitDy=0;entryX=0.5;entryY=0;entryDx=0;entryDy=0;" edge="1" parent="1" source="qCbVYPlnWsIV7pBduCYX-4" target="qCbVYPlnWsIV7pBduCYX-8">
          <mxGeometry width="50" height="50" relative="1" as="geometry">
            <mxPoint x="140" y="290" as="sourcePoint"/>
            <mxPoint x="140" y="330" as="targetPoint"/>
          </mxGeometry>
        </mxCell>
        <mxCell id="KFPzvuTl9U_heEtDYzFp-7" value="负载均衡" style="text;html=1;strokeColor=none;fillColor=none;align=center;verticalAlign=middle;whiteSpace=wrap;rounded=0;fontSize=13;" vertex="1" parent="1">
          <mxGeometry x="230" y="170" width="71" height="20" as="geometry"/>
        </mxCell>
        <mxCell id="KFPzvuTl9U_heEtDYzFp-8" value="负载均衡" style="text;html=1;strokeColor=none;fillColor=none;align=center;verticalAlign=middle;whiteSpace=wrap;rounded=0;fontSize=13;" vertex="1" parent="1">
          <mxGeometry x="490" y="170" width="71" height="20" as="geometry"/>
        </mxCell>
        <mxCell id="May9z0P63ZC5OK1nmdug-1" value="文件存储服务" style="rounded=1;whiteSpace=wrap;html=1;fillColor=#ffffff;fontSize=13;" vertex="1" parent="1">
          <mxGeometry x="312" y="570" width="127" height="40" as="geometry"/>
        </mxCell>
      </root>
    </mxGraphModel>
  </diagram>
  <diagram id="WfYblaTItE0F0YUl8LeO" name="HTTPS集群部署">
    <mxGraphModel dx="868" dy="484" grid="1" gridSize="10" guides="1" tooltips="1" connect="1" arrows="1" fold="1" page="1" pageScale="1" pageWidth="827" pageHeight="1169" math="0" shadow="0">
      <root>
        <mxCell id="93MoaO1li9n5qKx7oMh_-0"/>
        <mxCell id="93MoaO1li9n5qKx7oMh_-1" parent="93MoaO1li9n5qKx7oMh_-0"/>
        <mxCell id="lrl2ajtFqraaDZKBk1mB-0" value="" style="rounded=0;whiteSpace=wrap;html=1;fillColor=#dae8fc;strokeColor=#6c8ebf;" parent="93MoaO1li9n5qKx7oMh_-1" vertex="1">
          <mxGeometry x="20" y="220" width="350" height="160" as="geometry"/>
        </mxCell>
        <mxCell id="lrl2ajtFqraaDZKBk1mB-1" value="Nginx" style="rounded=1;whiteSpace=wrap;html=1;" parent="93MoaO1li9n5qKx7oMh_-1" vertex="1">
          <mxGeometry x="346" y="120" width="120" height="40" as="geometry"/>
        </mxCell>
        <mxCell id="lrl2ajtFqraaDZKBk1mB-2" value="不停机部署结构" style="text;html=1;strokeColor=none;fillColor=none;align=center;verticalAlign=middle;whiteSpace=wrap;rounded=0;" parent="93MoaO1li9n5qKx7oMh_-1" vertex="1">
          <mxGeometry x="323" y="10" width="180" height="20" as="geometry"/>
        </mxCell>
        <mxCell id="lrl2ajtFqraaDZKBk1mB-3" value="Nginx1" style="rounded=1;whiteSpace=wrap;html=1;" parent="93MoaO1li9n5qKx7oMh_-1" vertex="1">
          <mxGeometry x="70" y="240" width="120" height="40" as="geometry"/>
        </mxCell>
        <mxCell id="lrl2ajtFqraaDZKBk1mB-4" value="Nginx2" style="rounded=1;whiteSpace=wrap;html=1;" parent="93MoaO1li9n5qKx7oMh_-1" vertex="1">
          <mxGeometry x="240" y="240" width="120" height="40" as="geometry"/>
        </mxCell>
        <mxCell id="lrl2ajtFqraaDZKBk1mB-5" value="前端页面(apache1)" style="rounded=1;whiteSpace=wrap;html=1;" parent="93MoaO1li9n5qKx7oMh_-1" vertex="1">
          <mxGeometry x="70" y="320" width="120" height="40" as="geometry"/>
        </mxCell>
        <mxCell id="lrl2ajtFqraaDZKBk1mB-6" value="" style="endArrow=classic;html=1;" parent="93MoaO1li9n5qKx7oMh_-1" edge="1">
          <mxGeometry width="50" height="50" relative="1" as="geometry">
            <mxPoint x="409" y="70" as="sourcePoint"/>
            <mxPoint x="409" y="110" as="targetPoint"/>
          </mxGeometry>
        </mxCell>
        <mxCell id="lrl2ajtFqraaDZKBk1mB-7" value="前端页面(apache2)" style="rounded=1;whiteSpace=wrap;html=1;" parent="93MoaO1li9n5qKx7oMh_-1" vertex="1">
          <mxGeometry x="240" y="320" width="120" height="40" as="geometry"/>
        </mxCell>
        <mxCell id="lrl2ajtFqraaDZKBk1mB-8" value="http转https:80-&amp;gt;443" style="text;html=1;strokeColor=none;fillColor=none;align=center;verticalAlign=middle;whiteSpace=wrap;rounded=0;fontSize=13;" parent="93MoaO1li9n5qKx7oMh_-1" vertex="1">
          <mxGeometry x="220" y="120" width="133" height="20" as="geometry"/>
        </mxCell>
        <mxCell id="lrl2ajtFqraaDZKBk1mB-9" value="81" style="text;html=1;strokeColor=none;fillColor=none;align=center;verticalAlign=middle;whiteSpace=wrap;rounded=0;fontSize=13;" parent="93MoaO1li9n5qKx7oMh_-1" vertex="1">
          <mxGeometry x="40" y="240" width="40" height="20" as="geometry"/>
        </mxCell>
        <mxCell id="lrl2ajtFqraaDZKBk1mB-10" value="82" style="text;html=1;strokeColor=none;fillColor=none;align=center;verticalAlign=middle;whiteSpace=wrap;rounded=0;fontSize=13;" parent="93MoaO1li9n5qKx7oMh_-1" vertex="1">
          <mxGeometry x="210" y="240" width="40" height="20" as="geometry"/>
        </mxCell>
        <mxCell id="lrl2ajtFqraaDZKBk1mB-11" value="83" style="text;html=1;strokeColor=none;fillColor=none;align=center;verticalAlign=middle;whiteSpace=wrap;rounded=0;fontSize=13;" parent="93MoaO1li9n5qKx7oMh_-1" vertex="1">
          <mxGeometry x="40" y="320" width="40" height="20" as="geometry"/>
        </mxCell>
        <mxCell id="lrl2ajtFqraaDZKBk1mB-12" value="84" style="text;html=1;strokeColor=none;fillColor=none;align=center;verticalAlign=middle;whiteSpace=wrap;rounded=0;fontSize=13;" parent="93MoaO1li9n5qKx7oMh_-1" vertex="1">
          <mxGeometry x="210" y="320" width="40" height="20" as="geometry"/>
        </mxCell>
        <mxCell id="lrl2ajtFqraaDZKBk1mB-13" value="前端集群" style="text;html=1;strokeColor=none;fillColor=none;align=center;verticalAlign=middle;whiteSpace=wrap;rounded=0;horizontal=1;direction=south;" parent="93MoaO1li9n5qKx7oMh_-1" vertex="1">
          <mxGeometry x="20" y="270" width="20" height="60" as="geometry"/>
        </mxCell>
        <mxCell id="lrl2ajtFqraaDZKBk1mB-14" value="https转http:443,8086,第三方端口" style="text;html=1;strokeColor=none;fillColor=none;align=center;verticalAlign=middle;whiteSpace=wrap;rounded=0;fontSize=13;" parent="93MoaO1li9n5qKx7oMh_-1" vertex="1">
          <mxGeometry x="466" y="120" width="174" height="20" as="geometry"/>
        </mxCell>
        <mxCell id="lrl2ajtFqraaDZKBk1mB-15" value="" style="rounded=0;whiteSpace=wrap;html=1;fillColor=#dae8fc;strokeColor=#6c8ebf;" parent="93MoaO1li9n5qKx7oMh_-1" vertex="1">
          <mxGeometry x="400" y="220" width="360" height="160" as="geometry"/>
        </mxCell>
        <mxCell id="lrl2ajtFqraaDZKBk1mB-16" value="后端服务1" style="rounded=1;whiteSpace=wrap;html=1;" parent="93MoaO1li9n5qKx7oMh_-1" vertex="1">
          <mxGeometry x="460" y="240" width="120" height="130" as="geometry"/>
        </mxCell>
        <mxCell id="lrl2ajtFqraaDZKBk1mB-17" value="后端服务2" style="rounded=1;whiteSpace=wrap;html=1;" parent="93MoaO1li9n5qKx7oMh_-1" vertex="1">
          <mxGeometry x="620" y="240" width="120" height="130" as="geometry"/>
        </mxCell>
        <mxCell id="lrl2ajtFqraaDZKBk1mB-18" value="8087" style="text;html=1;strokeColor=none;fillColor=none;align=center;verticalAlign=middle;whiteSpace=wrap;rounded=0;fontSize=13;" parent="93MoaO1li9n5qKx7oMh_-1" vertex="1">
          <mxGeometry x="419" y="240" width="40" height="20" as="geometry"/>
        </mxCell>
        <mxCell id="lrl2ajtFqraaDZKBk1mB-19" value="8088" style="text;html=1;strokeColor=none;fillColor=none;align=center;verticalAlign=middle;whiteSpace=wrap;rounded=0;fontSize=13;" parent="93MoaO1li9n5qKx7oMh_-1" vertex="1">
          <mxGeometry x="580" y="240" width="40" height="20" as="geometry"/>
        </mxCell>
        <mxCell id="lrl2ajtFqraaDZKBk1mB-20" value="后端集群" style="text;html=1;strokeColor=none;fillColor=none;align=center;verticalAlign=middle;whiteSpace=wrap;rounded=0;horizontal=1;direction=south;" parent="93MoaO1li9n5qKx7oMh_-1" vertex="1">
          <mxGeometry x="400" y="280" width="20" height="60" as="geometry"/>
        </mxCell>
        <mxCell id="lrl2ajtFqraaDZKBk1mB-21" value="" style="rounded=0;whiteSpace=wrap;html=1;fillColor=#dae8fc;strokeColor=#6c8ebf;" parent="93MoaO1li9n5qKx7oMh_-1" vertex="1">
          <mxGeometry x="190" y="460" width="360" height="160" as="geometry"/>
        </mxCell>
        <mxCell id="lrl2ajtFqraaDZKBk1mB-22" value="&lt;span style=&quot;font-size: 13px&quot;&gt;会诊（好视通）服务&lt;/span&gt;" style="rounded=1;whiteSpace=wrap;html=1;" parent="93MoaO1li9n5qKx7oMh_-1" vertex="1">
          <mxGeometry x="229" y="465" width="131" height="45" as="geometry"/>
        </mxCell>
        <mxCell id="lrl2ajtFqraaDZKBk1mB-23" value="&lt;span style=&quot;font-size: 13px&quot;&gt;影像服务&lt;/span&gt;" style="rounded=1;whiteSpace=wrap;html=1;" parent="93MoaO1li9n5qKx7oMh_-1" vertex="1">
          <mxGeometry x="380" y="465" width="130" height="45" as="geometry"/>
        </mxCell>
        <mxCell id="lrl2ajtFqraaDZKBk1mB-24" value="第三方服务" style="text;html=1;strokeColor=none;fillColor=none;align=center;verticalAlign=middle;whiteSpace=wrap;rounded=0;horizontal=1;direction=south;" parent="93MoaO1li9n5qKx7oMh_-1" vertex="1">
          <mxGeometry x="190" y="520" width="20" height="60" as="geometry"/>
        </mxCell>
        <mxCell id="lrl2ajtFqraaDZKBk1mB-25" value="" style="endArrow=classic;html=1;fontSize=13;entryX=0.5;entryY=0;entryDx=0;entryDy=0;exitX=0.5;exitY=1;exitDx=0;exitDy=0;" parent="93MoaO1li9n5qKx7oMh_-1" source="lrl2ajtFqraaDZKBk1mB-1" target="lrl2ajtFqraaDZKBk1mB-0" edge="1">
          <mxGeometry width="50" height="50" relative="1" as="geometry">
            <mxPoint x="390" y="230" as="sourcePoint"/>
            <mxPoint x="440" y="180" as="targetPoint"/>
          </mxGeometry>
        </mxCell>
        <mxCell id="lrl2ajtFqraaDZKBk1mB-26" value="" style="endArrow=classic;html=1;fontSize=13;entryX=0.5;entryY=0;entryDx=0;entryDy=0;" parent="93MoaO1li9n5qKx7oMh_-1" target="lrl2ajtFqraaDZKBk1mB-15" edge="1">
          <mxGeometry width="50" height="50" relative="1" as="geometry">
            <mxPoint x="410" y="160" as="sourcePoint"/>
            <mxPoint x="210" y="230" as="targetPoint"/>
          </mxGeometry>
        </mxCell>
        <mxCell id="lrl2ajtFqraaDZKBk1mB-27" value="视频（海康）服务" style="rounded=1;whiteSpace=wrap;html=1;fillColor=#ffffff;fontSize=13;" parent="93MoaO1li9n5qKx7oMh_-1" vertex="1">
          <mxGeometry x="229" y="520" width="131" height="40" as="geometry"/>
        </mxCell>
        <mxCell id="lrl2ajtFqraaDZKBk1mB-28" value="语音（飞讯）服务" style="rounded=1;whiteSpace=wrap;html=1;fillColor=#ffffff;fontSize=13;" parent="93MoaO1li9n5qKx7oMh_-1" vertex="1">
          <mxGeometry x="379" y="520" width="131" height="40" as="geometry"/>
        </mxCell>
        <mxCell id="lrl2ajtFqraaDZKBk1mB-30" value="" style="endArrow=classic;html=1;fontSize=13;entryX=0.5;entryY=0;entryDx=0;entryDy=0;exitX=0.5;exitY=1;exitDx=0;exitDy=0;" parent="93MoaO1li9n5qKx7oMh_-1" source="lrl2ajtFqraaDZKBk1mB-0" target="lrl2ajtFqraaDZKBk1mB-21" edge="1">
          <mxGeometry width="50" height="50" relative="1" as="geometry">
            <mxPoint x="416" y="170" as="sourcePoint"/>
            <mxPoint x="205" y="230" as="targetPoint"/>
          </mxGeometry>
        </mxCell>
        <mxCell id="lrl2ajtFqraaDZKBk1mB-31" value="" style="endArrow=classic;html=1;fontSize=13;entryX=0.5;entryY=0;entryDx=0;entryDy=0;exitX=0.5;exitY=1;exitDx=0;exitDy=0;" parent="93MoaO1li9n5qKx7oMh_-1" source="lrl2ajtFqraaDZKBk1mB-15" target="lrl2ajtFqraaDZKBk1mB-21" edge="1">
          <mxGeometry width="50" height="50" relative="1" as="geometry">
            <mxPoint x="205" y="390" as="sourcePoint"/>
            <mxPoint x="380" y="470" as="targetPoint"/>
          </mxGeometry>
        </mxCell>
        <mxCell id="lrl2ajtFqraaDZKBk1mB-32" value="" style="endArrow=classic;html=1;fontSize=13;exitX=0.5;exitY=1;exitDx=0;exitDy=0;" parent="93MoaO1li9n5qKx7oMh_-1" source="lrl2ajtFqraaDZKBk1mB-3" target="lrl2ajtFqraaDZKBk1mB-5" edge="1">
          <mxGeometry width="50" height="50" relative="1" as="geometry">
            <mxPoint x="416" y="170" as="sourcePoint"/>
            <mxPoint x="205" y="230" as="targetPoint"/>
          </mxGeometry>
        </mxCell>
        <mxCell id="lrl2ajtFqraaDZKBk1mB-33" value="" style="endArrow=classic;html=1;fontSize=13;exitX=0.5;exitY=1;exitDx=0;exitDy=0;entryX=0.5;entryY=0;entryDx=0;entryDy=0;" parent="93MoaO1li9n5qKx7oMh_-1" source="lrl2ajtFqraaDZKBk1mB-4" target="lrl2ajtFqraaDZKBk1mB-7" edge="1">
          <mxGeometry width="50" height="50" relative="1" as="geometry">
            <mxPoint x="140" y="290" as="sourcePoint"/>
            <mxPoint x="140" y="330" as="targetPoint"/>
          </mxGeometry>
        </mxCell>
        <mxCell id="lrl2ajtFqraaDZKBk1mB-34" value="负载均衡" style="text;html=1;strokeColor=none;fillColor=none;align=center;verticalAlign=middle;whiteSpace=wrap;rounded=0;fontSize=13;" parent="93MoaO1li9n5qKx7oMh_-1" vertex="1">
          <mxGeometry x="230" y="170" width="71" height="20" as="geometry"/>
        </mxCell>
        <mxCell id="lrl2ajtFqraaDZKBk1mB-35" value="负载均衡" style="text;html=1;strokeColor=none;fillColor=none;align=center;verticalAlign=middle;whiteSpace=wrap;rounded=0;fontSize=13;" parent="93MoaO1li9n5qKx7oMh_-1" vertex="1">
          <mxGeometry x="490" y="170" width="71" height="20" as="geometry"/>
        </mxCell>
        <mxCell id="lrl2ajtFqraaDZKBk1mB-36" value="文件存储服务" style="rounded=1;whiteSpace=wrap;html=1;fillColor=#ffffff;fontSize=13;" parent="93MoaO1li9n5qKx7oMh_-1" vertex="1">
          <mxGeometry x="312" y="570" width="127" height="40" as="geometry"/>
        </mxCell>
        <mxCell id="B8dxSnKlsc6oV50Y4XVp-0" value="Text" style="text;html=1;align=center;verticalAlign=middle;resizable=0;points=[];;autosize=1;fontSize=13;" vertex="1" parent="93MoaO1li9n5qKx7oMh_-1">
          <mxGeometry x="584" y="211" width="40" height="20" as="geometry"/>
        </mxCell>
      </root>
    </mxGraphModel>
  </diagram>
</mxfile>
